<svg xmlns="http://www.w3.org/2000/svg" viewBox="0 0 76 65.45"><defs><style>.cls-1,.cls-2{fill:none;stroke:#eae6c9;stroke-width:2px;}.cls-1{stroke-linecap:round;stroke-linejoin:round;}.cls-2{stroke-miterlimit:10;}</style></defs><title>气压</title><g id="图层_2" data-name="图层 2"><g id="图层_1-2" data-name="图层 1"><g id="气压"><path class="cls-1" d="M12.13,64.45A36.89,36.89,0,0,1,1,38H1A37,37,0,0,1,38,1h0A37,37,0,0,1,75,38h0A36.89,36.89,0,0,1,63.87,64.45"/><path class="cls-1" d="M11.42,38h0A26.58,26.58,0,0,1,38,11.42h0A26.59,26.59,0,0,1,64.59,38h0"/><path class="cls-2" d="M45.16,53.76h0a5.24,5.24,0,0,1-6.94-.08h0a5.18,5.18,0,0,1-1.66-4.39h0a3.15,3.15,0,0,0-.89-2.56l-10-10.08a2.09,2.09,0,0,1,3-2.94l10,10.08a3.11,3.11,0,0,0,2.52.88h0a5.18,5.18,0,0,1,4.23,1.51h0a5.14,5.14,0,0,1-.23,7.59Z"/></g></g></g></svg>