<svg xmlns="http://www.w3.org/2000/svg" viewBox="0 0 76 60.44"><defs><style>.cls-1{fill:none;stroke:#eae6c9;stroke-linecap:round;stroke-linejoin:round;stroke-width:2px;}</style></defs><title>ch2o</title><g id="图层_2" data-name="图层 2"><g id="图层_1-2" data-name="图层 1"><path id="ch2o" class="cls-1" d="M62.2,25.3a12.86,12.86,0,0,0-12.35,9.47l-4-.38A14,14,0,0,0,32,21.71a12.73,12.73,0,0,0-2,.15l-1.15-3.21a9.44,9.44,0,1,0-4.64,1.22,10,10,0,0,0,1.55-.09l1.06,3A14.22,14.22,0,0,0,19.4,42.07l-2.16,1.25a9.42,9.42,0,0,0-6.87-3,9.57,9.57,0,0,0,0,19.13,9.52,9.52,0,0,0,9.44-9.56A9.82,9.82,0,0,0,19,46.11l2.15-1.25A13.84,13.84,0,0,0,31.94,50,14.06,14.06,0,0,0,45.78,37.72l3.59.35v.2a12.82,12.82,0,1,0,12.82-13Zm-33.42-15a4.63,4.63,0,0,1-4.64,4.61,4.69,4.69,0,0,1-4.63-4.67h0M10.25,45.38a4.68,4.68,0,0,1,0,9.36h0m22-10.52A8.11,8.11,0,1,1,38,41.8a8.21,8.21,0,0,1-5.77,2.42ZM69.3,38.34a7,7,0,0,1-6.93,7h0a7,7,0,0,1-5.08-12"/></g></g></svg>