<?xml version="1.0" encoding="utf-8"?>
<!-- Generator: Adobe Illustrator 24.0.1, SVG Export Plug-In . SVG Version: 6.00 Build 0)  -->
<svg version="1.1" id="图层_1" xmlns="http://www.w3.org/2000/svg" xmlns:xlink="http://www.w3.org/1999/xlink" x="0px" y="0px"
	 viewBox="0 0 76 44.6" style="enable-background:new 0 0 76 44.6;" xml:space="preserve">
<style type="text/css">
	.st0{fill:none;stroke:#EAE6C9;stroke-width:2;stroke-linecap:round;stroke-linejoin:round;}
	.st1{enable-background:new    ;}
	.st2{fill:#EAE6C9;}
</style>
<title>二氧化碳</title>
<g id="图层_2_1_">
	<g id="图层_1-2">
		<g id="二氧化碳">
			<path class="st0" d="M21,11C3.3,10.7,0.6,20.6,1,28.9c0.5,8.3,7.4,14.7,15.7,14.7h37c11.8,0,21.3-9.5,21.3-21.3
				c0-8.9-5.6-16.9-13.9-20l0,0C59,1.6,56.8,1.1,54.5,1 M54.5,1h-0.8c-6.3,0-12.3,2.8-16.4,7.7C32,5.3,25.1,6.3,21,11"/>
			<g class="st1">
				<path class="st2" d="M21.8,16.8c1.7,0,3,0.4,4.1,1.1c1.1,0.7,1.7,1.7,2.1,2.8l-2.5,1.2c-0.2-0.8-0.6-1.5-1.2-1.9
					c-0.6-0.5-1.4-0.7-2.5-0.7c-1,0-1.9,0.3-2.6,0.8c-0.8,0.6-1.3,1.3-1.8,2.3c-0.4,1-0.6,2.2-0.6,3.6c0,1.3,0.2,2.5,0.6,3.5
					c0.4,1,1,1.8,1.8,2.3c0.8,0.5,1.6,0.8,2.6,0.8c2,0,3.3-0.9,3.7-2.6l2.5,1.1c-0.3,1.2-1,2.1-2.1,2.8c-1.1,0.7-2.4,1.1-4.1,1.1
					c-1.5,0-2.9-0.4-4.1-1.2c-1.2-0.8-2.1-1.8-2.8-3.2c-0.7-1.4-1-3-1-4.8c0-1.8,0.3-3.4,1-4.8c0.7-1.4,1.6-2.5,2.8-3.3
					C18.9,17.2,20.2,16.8,21.8,16.8z"/>
				<path class="st2" d="M40,16.8c1.5,0,2.9,0.4,4.1,1.2c1.2,0.8,2.1,1.9,2.8,3.3s1,3,1,4.8c0,1.8-0.3,3.4-1,4.8
					c-0.7,1.4-1.6,2.5-2.8,3.2c-1.2,0.8-2.6,1.2-4.1,1.2c-1.5,0-2.9-0.4-4.1-1.2s-2.1-1.8-2.8-3.2c-0.7-1.4-1-3-1-4.8
					c0-1.8,0.3-3.4,1-4.8c0.7-1.4,1.6-2.5,2.8-3.3C37.1,17.2,38.5,16.8,40,16.8z M40,19.2c-1,0-1.8,0.3-2.6,0.9
					c-0.8,0.6-1.3,1.4-1.8,2.4c-0.4,1-0.6,2.2-0.6,3.6c0,1.3,0.2,2.5,0.6,3.6c0.4,1,1,1.8,1.8,2.4c0.8,0.6,1.6,0.9,2.6,0.9
					s1.8-0.3,2.6-0.9c0.8-0.6,1.3-1.4,1.8-2.4c0.4-1,0.6-2.2,0.6-3.6c0-1.4-0.2-2.6-0.6-3.6c-0.4-1-1-1.8-1.8-2.4
					C41.9,19.5,41,19.2,40,19.2z"/>
			</g>
			<g class="st1">
				<path class="st2" d="M58.9,33.7v1.5h-7.5v-1.2l4.4-4.5c0.5-0.5,0.8-0.9,1-1.3c0.2-0.4,0.3-0.8,0.3-1.2c0-0.6-0.2-1.1-0.5-1.5
					C56.1,25.2,55.6,25,55,25c-0.6,0-1,0.1-1.4,0.4s-0.7,0.7-0.8,1.3l-1.3-0.8c0.3-0.8,0.7-1.4,1.3-1.8c0.6-0.4,1.4-0.6,2.3-0.6
					c0.7,0,1.4,0.1,1.9,0.4c0.6,0.3,1,0.7,1.3,1.2c0.3,0.5,0.5,1.1,0.5,1.8c0,0.6-0.2,1.2-0.5,1.7c-0.3,0.5-0.8,1.2-1.6,1.9l-3,3.1
					H58.9z"/>
			</g>
		</g>
	</g>
</g>
</svg>
