<svg xmlns="http://www.w3.org/2000/svg" viewBox="0 0 43.29 76"><defs><style>.cls-1,.cls-3{fill:none;stroke:#eae6c9;stroke-width:2px;}.cls-1{stroke-miterlimit:10;}.cls-2{fill:#eae6c9;}.cls-3{stroke-linecap:round;stroke-linejoin:round;}</style></defs><title>湿度</title><g id="图层_2" data-name="图层 2"><g id="图层_1-2" data-name="图层 1"><g id="湿度"><path class="cls-1" d="M13.9,75h0A13.87,13.87,0,0,1,1,61.88H1A13.65,13.65,0,0,1,6.07,50.53h0a8.29,8.29,0,0,0,3.1-6.47V6.52a5.52,5.52,0,0,1,11,0V44.06a8.24,8.24,0,0,0,3.1,6.34h0a13.66,13.66,0,0,1,5.14,10.7h0a13.26,13.26,0,0,1-4.24,10.14A13.41,13.41,0,0,1,13.9,75Z"/><path class="cls-2" d="M14.94,65.27a6.61,6.61,0,1,1,6.6-6.61A6.61,6.61,0,0,1,14.94,65.27Z"/><path class="cls-3" d="M14.73,8.61V58"/><path class="cls-3" d="M34.27,27.54a8.05,8.05,0,0,1-8-8.08q0-4.47,8-12.83,8,8.37,8,12.83a8.05,8.05,0,0,1-8,8.08Z"/></g></g></g></svg>