<svg xmlns="http://www.w3.org/2000/svg" viewBox="0 0 76 75.65"><defs><style>.cls-1{fill:none;stroke:#eae6c9;stroke-linecap:round;stroke-linejoin:round;stroke-width:2px;}</style></defs><title>光照度</title><g id="图层_2" data-name="图层 2"><g id="图层_1-2" data-name="图层 1"><g id="光照度"><rect class="cls-1" x="16.95" y="21" width="37.69" height="37.69" rx="18.85"/><line class="cls-1" x1="11.2" y1="15.23" x2="19.18" y2="23.2"/><line class="cls-1" x1="1" y1="39.83" x2="12.28" y2="39.83"/><line class="cls-1" x1="11.18" y1="64.44" x2="19.16" y2="56.47"/><line class="cls-1" x1="35.79" y1="74.65" x2="35.79" y2="63.37"/><line class="cls-1" x1="60.4" y1="64.46" x2="52.43" y2="56.49"/><path class="cls-1" d="M41.9,1.59A29,29,0,0,1,47.53,1,27.23,27.23,0,0,1,67.09,8.91h0A27.21,27.21,0,0,1,75,28.46a28.9,28.9,0,0,1-.77,6.47"/><path class="cls-1" d="M44.48,11a19.14,19.14,0,0,1,13.89,5.33h0c3.81,3.81,5.54,9.07,5.32,14.75"/></g></g></g></svg>