<svg xmlns="http://www.w3.org/2000/svg" viewBox="0 0 76 57.7"><defs><style>.cls-1{fill:none;stroke:#eae6c9;stroke-linecap:round;stroke-linejoin:round;stroke-width:2px;}</style></defs><title>噪音</title><g id="图层_2" data-name="图层 2"><g id="图层_1-2" data-name="图层 1"><g id="噪音"><path class="cls-1" d="M17.21,15.12,34.08,1.58a2.65,2.65,0,0,1,4.3,2.06V54.06a2.64,2.64,0,0,1-4.29,2.06L16.75,42.29H3.64A2.65,2.65,0,0,1,1,39.64V17.77a2.65,2.65,0,0,1,2.64-2.65Z"/><path class="cls-1" d="M62.43,8.66a28.25,28.25,0,0,1,4.37,3.55A27.06,27.06,0,0,1,75,31.55h0a27.09,27.09,0,0,1-8.19,19.33,29,29,0,0,1-5.1,4"/><path class="cls-1" d="M52.47,18.24a19,19,0,0,1,6,13.53h0c0,5.36-2.49,10.28-6.64,14.13"/></g></g></g></svg>