<?xml version="1.0" encoding="utf-8"?>
<!-- Generator: Adobe Illustrator 24.0.1, SVG Export Plug-In . SVG Version: 6.00 Build 0)  -->
<svg version="1.1" id="图层_1" xmlns="http://www.w3.org/2000/svg" xmlns:xlink="http://www.w3.org/1999/xlink" x="0px" y="0px"
	 viewBox="0 0 76 70.8" style="enable-background:new 0 0 76 70.8;" xml:space="preserve">
<style type="text/css">
	.st0{fill:none;stroke:#EAE6C9;stroke-width:2;stroke-linecap:round;stroke-linejoin:round;}
	.st1{enable-background:new    ;}
	.st2{fill:#EAE6C9;}
</style>
<title>PM2.5</title>
<g id="图层_2_1_">
	<g id="图层_1-2">
		<g id="PM2.5">
			<path class="st0" d="M21,37.2C3.3,36.8,0.6,46.8,1,55.1c0.5,8.3,7.4,14.7,15.7,14.7h37c11.8,0,21.3-9.5,21.3-21.3
				c0-8.9-5.6-16.9-14-20l0,0c-2.1-0.8-4.3-1.2-6.5-1.3 M37.4,13.4c8.2,0,15.4,5.7,17.2,13.8h-0.8c-6.3,0-12.3,2.8-16.4,7.7
				c-5.3-3.4-12.2-2.4-16.3,2.3c-3.4-9.1,1.1-19.2,10.2-22.7C33.2,13.8,35.3,13.4,37.4,13.4L37.4,13.4z"/>
			<line class="st0" x1="37.7" y1="1" x2="37.7" y2="8.4"/>
			<line class="st0" x1="19.6" y1="6.9" x2="23.9" y2="12.8"/>
			<line class="st0" x1="8.3" y1="22.3" x2="15.3" y2="24.6"/>
			<line class="st0" x1="67.1" y1="22.3" x2="60.1" y2="24.6"/>
			<line class="st0" x1="55.9" y1="6.9" x2="51.5" y2="12.8"/>
			<g class="st1">
				<path class="st2" d="M16.6,51c0,0.7-0.2,1.4-0.5,1.9c-0.3,0.6-0.7,1-1.3,1.3c-0.6,0.3-1.2,0.5-1.9,0.5h-2.1v4.1H9V47.3h3.9
					c0.7,0,1.4,0.2,1.9,0.5c0.6,0.3,1,0.7,1.3,1.3S16.6,50.2,16.6,51z M14.7,51c0-0.7-0.2-1.2-0.6-1.6s-0.9-0.6-1.6-0.6h-1.7v4.4
					h1.7c0.7,0,1.2-0.2,1.6-0.6C14.5,52.2,14.7,51.7,14.7,51z"/>
				<path class="st2" d="M32.7,58.7h-1.8v-8.9l-3.1,8.9h-1.9l-3.1-8.9v8.9h-1.7V47.3h2.6l3.2,9.4l3.2-9.4h2.6V58.7z"/>
				<path class="st2" d="M44.9,57.3v1.5h-7.5v-1.2l4.4-4.5c0.5-0.5,0.8-0.9,1-1.3c0.2-0.4,0.3-0.8,0.3-1.2c0-0.6-0.2-1.1-0.5-1.5
					c-0.4-0.4-0.8-0.5-1.5-0.5c-0.6,0-1,0.1-1.4,0.4s-0.7,0.7-0.8,1.3l-1.3-0.8c0.3-0.8,0.7-1.4,1.3-1.8c0.6-0.4,1.4-0.6,2.3-0.6
					c0.7,0,1.4,0.1,1.9,0.4s1,0.7,1.3,1.2c0.3,0.5,0.5,1.1,0.5,1.8c0,0.6-0.2,1.2-0.5,1.7c-0.3,0.5-0.8,1.2-1.6,1.9l-3,3.1H44.9z"/>
				<path class="st2" d="M50.6,56.7c0.3,0,0.6,0.1,0.8,0.3c0.2,0.2,0.3,0.5,0.3,0.8s-0.1,0.6-0.3,0.8c-0.2,0.2-0.4,0.3-0.8,0.3
					s-0.6-0.1-0.8-0.3c-0.2-0.2-0.3-0.5-0.3-0.8s0.1-0.6,0.3-0.8C50,56.8,50.3,56.7,50.6,56.7z"/>
				<path class="st2" d="M63.9,55.3c0,0.7-0.2,1.3-0.5,1.9s-0.8,1-1.4,1.3s-1.3,0.5-2,0.5c-0.9,0-1.7-0.2-2.3-0.6
					c-0.6-0.4-1-1-1.3-1.6l1.3-0.8c0.2,0.5,0.4,0.9,0.8,1.2c0.4,0.3,0.9,0.4,1.4,0.4c0.6,0,1.2-0.2,1.6-0.6c0.4-0.4,0.6-0.9,0.6-1.6
					c0-0.6-0.2-1.2-0.6-1.6c-0.4-0.4-0.9-0.6-1.5-0.6c-0.4,0-0.8,0.1-1.1,0.2c-0.3,0.2-0.5,0.4-0.7,0.6l-1.4-0.4l0.6-6.3h5.9v1.5H59
					l-0.4,3.4c0.5-0.3,1.1-0.5,1.6-0.5c0.7,0,1.3,0.2,1.8,0.5c0.5,0.3,1,0.7,1.3,1.3S63.9,54.6,63.9,55.3z"/>
			</g>
		</g>
	</g>
</g>
</svg>
