<svg xmlns="http://www.w3.org/2000/svg" viewBox="0 0 70.52 76"><defs><style>.cls-1{fill:none;stroke:#eae6c9;stroke-linecap:round;stroke-linejoin:round;stroke-width:2px;}</style></defs><title>tvoc</title><g id="图层_2" data-name="图层 2"><g id="图层_1-2" data-name="图层 1"><g id="tvoc"><rect class="cls-1" x="1" y="1" width="17.73" height="17.73" rx="8.86"/><rect class="cls-1" x="25.06" y="6.12" width="14.62" height="14.62" rx="7.31"/><path class="cls-1" d="M30.68,29.83a7.34,7.34,0,0,0-7.12-5.68,7.31,7.31,0,0,0-3.82,13.54"/><path class="cls-1" d="M56.76,22.82a6.12,6.12,0,0,0,.1-1.14A7.31,7.31,0,1,0,49.55,29a6.12,6.12,0,0,0,1.14-.1"/><polyline class="cls-1" points="16.48 15.76 26.66 24.85 42.23 22.69"/><line class="cls-1" x1="26.66" y1="24.85" x2="29.1" y2="19.97"/><path class="cls-1" d="M58,39.77a23.1,23.1,0,0,1,3.36,12h0A23.21,23.21,0,0,1,38.17,75h0A23.2,23.2,0,0,1,15,51.8h0a23.21,23.21,0,0,1,23.2-23.21h0a23,23,0,0,1,10.54,2.53"/><path class="cls-1" d="M16.52,60.16c2.53.83,7,3.81,14.16,1.34,12.81-4.4,18.87-8.59,29.68-2.89"/><rect class="cls-1" x="40.25" y="43.55" width="8.05" height="8.05" rx="4.03"/><rect class="cls-1" x="28.87" y="50.87" width="5.39" height="5.39" rx="2.69"/><polyline class="cls-1" points="58.15 39.97 69.08 29.04 69.14 28.98 69.13 28.97"/><polyline class="cls-1" points="59.88 19.72 59.87 19.71 59.81 19.77 48.54 31.03"/><ellipse class="cls-1" cx="64.44" cy="24.4" rx="2.93" ry="6.55" transform="translate(1.62 52.71) rotate(-45)"/></g></g></g></svg>