<svg xmlns="http://www.w3.org/2000/svg" width="52.312" height="51.593" viewBox="0 0 52.312 51.593">
  <defs>
    <style>
      .cls-1 {
        fill: #e8d2ac;
        fill-rule: evenodd;
      }
    </style>
  </defs>
  <path id="dk.svg" class="cls-1" d="M696.043,384.709a2.555,2.555,0,1,1-3.613-3.613,5.643,5.643,0,0,0,0-7.973l-12.415-12.416a5.638,5.638,0,1,0-7.974,7.973l7.663,7.663a2.554,2.554,0,0,1-3.612,3.612l-7.663-7.662a10.747,10.747,0,0,1,15.2-15.2l12.416,12.416A10.759,10.759,0,0,1,696.043,384.709ZM713.73,402.4a10.759,10.759,0,0,1-15.2,0L686.116,389.98a10.759,10.759,0,0,1,0-15.2,2.555,2.555,0,1,1,3.613,3.613,5.644,5.644,0,0,0,0,7.973l12.416,12.416a5.638,5.638,0,0,0,7.973-7.974l-7.663-7.662a2.555,2.555,0,0,1,3.613-3.613l7.662,7.663A10.759,10.759,0,0,1,713.73,402.4Zm-39.105-17.139a1.547,1.547,0,0,1-1.1.456h-7.133a1.556,1.556,0,1,1,0-3.112h7.133A1.556,1.556,0,0,1,674.625,385.257Zm2.866,3.67a1.551,1.551,0,0,1-.456,1.1l-5.044,5.044a1.556,1.556,0,0,1-2.2-2.2l5.044-5.044A1.556,1.556,0,0,1,677.491,388.927Zm4.314,1.31a1.547,1.547,0,0,1,.456,1.1v7.133a1.556,1.556,0,1,1-3.111,0v-7.133A1.555,1.555,0,0,1,681.805,390.237Zm25.561-15.927a1.547,1.547,0,0,1,1.1-.456H715.6a1.556,1.556,0,1,1,0,3.111h-7.133A1.555,1.555,0,0,1,707.366,374.31Zm-2.866-3.67a1.551,1.551,0,0,1,.456-1.1L710,364.5a1.556,1.556,0,0,1,2.2,2.2l-5.044,5.044A1.556,1.556,0,0,1,704.5,370.64Zm-4.314-1.31a1.551,1.551,0,0,1-.456-1.1V361.1a1.556,1.556,0,0,1,3.111,0v7.134A1.555,1.555,0,0,1,700.186,369.33Z" transform="translate(-664.844 -353.969)"/>
</svg>
