<svg xmlns="http://www.w3.org/2000/svg" xmlns:xlink="http://www.w3.org/1999/xlink" width="68.5" height="58.062" viewBox="0 0 68.5 58.062">
  <defs>
    <style>
      .cls-1 {
        fill-rule: evenodd;
        fill: url(#linear-gradient);
      }
    </style>
    <linearGradient id="linear-gradient" x1="64.625" y1="452.562" x2="122.687" y2="394.5" gradientUnits="userSpaceOnUse">
      <stop offset="0" stop-color="#8e7139"/>
      <stop offset="0.565" stop-color="#e4cb95"/>
      <stop offset="0.99" stop-color="#fff4de"/>
      <stop offset="1" stop-color="#fff4de"/>
    </linearGradient>
  </defs>
  <path id="_002.svg" data-name="002.svg" class="cls-1" d="M120.93,394.487H66.381a7,7,0,0,0-6.989,6.989v39.553a7,7,0,0,0,6.989,6.989h2.452v1.224a3.105,3.105,0,0,0,2.823,3.32H80.81a3.105,3.105,0,0,0,2.823-3.32v-1.224h20.046v1.224a3.1,3.1,0,0,0,2.822,3.32h9.155a3.106,3.106,0,0,0,2.823-3.32v-1.224h2.451a7,7,0,0,0,6.99-6.989V401.476A7,7,0,0,0,120.93,394.487ZM81.542,449.242a1.138,1.138,0,0,1-.732,1.23H71.655a1.139,1.139,0,0,1-.732-1.23v-1.224H81.542v1.224Zm34.846,0a1.139,1.139,0,0,1-.732,1.23H106.5a1.139,1.139,0,0,1-.732-1.23v-1.224h10.619v1.224Zm9.441-8.213a4.9,4.9,0,0,1-4.9,4.9H66.381a4.9,4.9,0,0,1-4.9-4.9V401.476a4.9,4.9,0,0,1,4.9-4.9H120.93a4.9,4.9,0,0,1,4.9,4.9v39.553Zm-24.911-34.8a20.711,20.711,0,1,0,4.452,6.6A20.7,20.7,0,0,0,100.918,406.228ZM86.227,439.6a18.685,18.685,0,1,1,18.685-18.685A18.706,18.706,0,0,1,86.227,439.6Zm11.537-29.837a13.017,13.017,0,0,0-3.909-2.618,6.521,6.521,0,0,0-4.981-.19,6.819,6.819,0,0,0-3.477,3.931,9.489,9.489,0,0,0-.725,4.208,6.127,6.127,0,0,0-3.538,2.407,0.836,0.836,0,0,0-.132.007,2.045,2.045,0,0,1-1.826-.794,7.863,7.863,0,0,1-.441-2.224,13.328,13.328,0,0,0-.342-2.143,3.308,3.308,0,0,0-.517-1.16,2.335,2.335,0,0,0-1.835-.972,5.391,5.391,0,0,0-3.688,1.9,9.838,9.838,0,0,0-2.023,4.2,13.007,13.007,0,0,0-.313,4.693,6.518,6.518,0,0,0,2.326,4.409,6.135,6.135,0,0,0,3.807,1.14,9.834,9.834,0,0,0,1.336-.094,9.524,9.524,0,0,0,3.99-1.465,6.106,6.106,0,0,0,4.244,2.129,2.008,2.008,0,0,1,.138,1.845,7.876,7.876,0,0,1-1.705,1.494,13.371,13.371,0,0,0-1.685,1.367,3.309,3.309,0,0,0-.746,1.028,2.336,2.336,0,0,0,.075,2.076,5.4,5.4,0,0,0,3.493,2.241,7.775,7.775,0,0,0,1.5.141,11.29,11.29,0,0,0,3.147-.49,13.028,13.028,0,0,0,4.222-2.076,6.518,6.518,0,0,0,2.655-4.219,6.815,6.815,0,0,0-1.666-4.976,9.555,9.555,0,0,0-3.2-2.692,6.107,6.107,0,0,0-.426-4.694A1.966,1.966,0,0,1,93,417.229a7.9,7.9,0,0,1,2.147.73,13.333,13.333,0,0,0,2.027.776,3.318,3.318,0,0,0,1.263.132,2.333,2.333,0,0,0,1.759-1.1,5.392,5.392,0,0,0,.194-4.146A9.835,9.835,0,0,0,97.764,409.766ZM73.629,423.777c-1.837-1.431-1.859-4.532-1.267-6.958a7.81,7.81,0,0,1,1.565-3.32,3.579,3.579,0,0,1,2-1.193h0.028a0.267,0.267,0,0,1,.24.13,1.454,1.454,0,0,1,.173.442,11.332,11.332,0,0,1,.284,1.821,9.76,9.76,0,0,0,.575,2.778,3.284,3.284,0,0,0,1.743,1.711,4.646,4.646,0,0,0,1.217.369,6.115,6.115,0,0,0,.217,3.647C78.682,424.474,75.206,425.006,73.629,423.777Zm8.469-2.741a4.023,4.023,0,1,1,4.023,4.023A4.028,4.028,0,0,1,82.1,421.036Zm12.649,9.219c-0.321,2.306-3,3.876-5.392,4.576a7.811,7.811,0,0,1-3.658.305,3.509,3.509,0,0,1-2.048-1.163,0.267,0.267,0,0,1-.007-0.273,1.476,1.476,0,0,1,.3-0.371,11.422,11.422,0,0,1,1.435-1.156,9.782,9.782,0,0,0,2.119-1.887,3.283,3.283,0,0,0,.61-2.364,4.619,4.619,0,0,0-.215-1.032,6.139,6.139,0,0,0,3.1-2.16C92.917,425.648,95.016,428.318,94.747,430.255Zm3.682-13.608a0.265,0.265,0,0,1-.233.143,1.438,1.438,0,0,1-.469-0.071,11.317,11.317,0,0,1-1.719-.665,9.764,9.764,0,0,0-2.693-.891,3.282,3.282,0,0,0-2.353.654,4.632,4.632,0,0,0-.759.671,6.094,6.094,0,0,0-3.446-1.533c-0.19-2.128,1.078-5.319,2.9-6.06,2.158-.875,4.855.657,6.66,2.382a7.8,7.8,0,0,1,2.093,3.016A3.5,3.5,0,0,1,98.429,416.647Zm15.639-11.118h-3.355a1.045,1.045,0,1,0,0,2.09h3.355A1.045,1.045,0,0,0,114.068,405.529Zm0,7.259h-3.355a1.045,1.045,0,1,0,0,2.09h3.355A1.045,1.045,0,0,0,114.068,412.788Zm0,7.259h-3.355a1.045,1.045,0,0,0,0,2.09h3.355A1.045,1.045,0,1,0,114.068,420.047Zm6.6-14.518h-3.355a1.045,1.045,0,1,0,0,2.09h3.355A1.045,1.045,0,0,0,120.664,405.529Zm0,7.259h-3.355a1.045,1.045,0,0,0,0,2.09h3.355A1.045,1.045,0,0,0,120.664,412.788Zm0,7.259h-3.355a1.045,1.045,0,1,0,0,2.09h3.355A1.045,1.045,0,1,0,120.664,420.047Zm-6.6,6.911h-3.355a1.045,1.045,0,1,0,0,2.09h3.355A1.045,1.045,0,1,0,114.068,426.958Zm0,7.259h-3.355a1.045,1.045,0,1,0,0,2.09h3.355A1.045,1.045,0,0,0,114.068,434.217Zm6.6-7.259h-3.355a1.045,1.045,0,1,0,0,2.09h3.355A1.045,1.045,0,1,0,120.664,426.958Zm0,7.259h-3.355a1.045,1.045,0,1,0,0,2.09h3.355A1.045,1.045,0,0,0,120.664,434.217Z" transform="translate(-59.406 -394.5)"/>
</svg>
