<svg xmlns="http://www.w3.org/2000/svg" xmlns:xlink="http://www.w3.org/1999/xlink" width="66.25" height="58.124" viewBox="0 0 66.25 58.124">
  <defs>
    <style>
      .cls-1 {
        fill-rule: evenodd;
        fill: url(#linear-gradient);
      }
    </style>
    <linearGradient id="linear-gradient" x1="69.063" y1="605.562" x2="127.187" y2="547.438" gradientUnits="userSpaceOnUse">
      <stop offset="0" stop-color="#8e7139"/>
      <stop offset="0.565" stop-color="#e4cb95"/>
      <stop offset="0.99" stop-color="#fff4de"/>
      <stop offset="1" stop-color="#fff4de"/>
    </linearGradient>
  </defs>
  <path id="_003.svg" data-name="003.svg" class="cls-1" d="M130.068,547.45h-63.9A1.169,1.169,0,0,0,65,548.618v55.768a1.169,1.169,0,0,0,1.169,1.168h14.79a1.169,1.169,0,0,0,1.168-1.217,25.354,25.354,0,0,0-3.965-12,39.519,39.519,0,0,0-3.84-5.28,1.152,1.152,0,0,0,.074-0.246,22.448,22.448,0,0,0,9.932-9.042c2.633-4.648,3.528-10.461,2.666-17.288a7.542,7.542,0,0,0,4.724-3.384,7.518,7.518,0,0,0,12.8,0,7.547,7.547,0,0,0,4.724,3.384c-0.862,6.827.033,12.64,2.666,17.288a22.52,22.52,0,0,0,10.134,9.141,39.58,39.58,0,0,0-3.967,5.427,25.35,25.35,0,0,0-3.965,12,1.17,1.17,0,0,0,1.168,1.217h14.79a1.168,1.168,0,0,0,1.169-1.168V548.618A1.168,1.168,0,0,0,130.068,547.45Zm-62.73,40.32h0.853c0.453,0.818,4.56,8.38,5.524,15.447H67.338V587.77ZM79.7,603.217H76.073a42.525,42.525,0,0,0-3.148-10.964c-0.8-1.91-1.566-3.476-2.085-4.483h0.99C76.373,592.829,79.13,598.259,79.7,603.217Zm-7.876-17.8-0.028.012H67.338V558.6a7.514,7.514,0,0,0,11.581-1.5,7.53,7.53,0,0,0,5.739,3.543C86.243,572.848,81.926,581.182,71.82,585.421Zm33.917-32.263a1.169,1.169,0,0,0-1.169-1.168h-0.1a1.169,1.169,0,0,0-1.169,1.168,5.182,5.182,0,0,1-10.363,0,1.168,1.168,0,0,0-1.169-1.168h-0.1a1.168,1.168,0,0,0-1.169,1.168,5.182,5.182,0,0,1-10.363,0,1.169,1.169,0,0,0-1.169-1.168h-0.1a1.169,1.169,0,0,0-1.169,1.168,5.181,5.181,0,0,1-10.363,0v-3.371H128.9v3.371a5.182,5.182,0,0,1-10.363,0,1.168,1.168,0,0,0-1.169-1.168h-0.1a1.168,1.168,0,0,0-1.169,1.168A5.182,5.182,0,0,1,105.737,553.158Zm5.842,7.485a7.528,7.528,0,0,0,5.739-3.543,7.514,7.514,0,0,0,11.581,1.5v26.834h-4.454l-0.028-.012C114.311,581.182,110,572.848,111.579,560.643Zm12.828,27.127h1.045c-0.519,1.007-1.286,2.573-2.085,4.483a42.5,42.5,0,0,0-3.148,10.964h-3.678C117.107,598.259,119.865,592.829,124.407,587.77Zm-1.831,15.447c0.965-7.067,5.071-14.629,5.524-15.447h0.8v15.447h-6.323ZM75.378,562.2a1.166,1.166,0,0,0-.776,1.457,14.505,14.505,0,0,1,.336,4.744,20.939,20.939,0,0,1-4.276,10.948,1.169,1.169,0,0,0,1.88,1.389,25.191,25.191,0,0,0,3.565-6.649,21.647,21.647,0,0,0,1.172-5.64,16.371,16.371,0,0,0-.44-5.472A1.171,1.171,0,0,0,75.378,562.2Zm49.953,18.782a1.167,1.167,0,0,0,.245-1.633A20.939,20.939,0,0,1,121.3,568.4a14.483,14.483,0,0,1,.337-4.744,1.169,1.169,0,0,0-2.237-.68,16.38,16.38,0,0,0-.44,5.472,21.659,21.659,0,0,0,1.172,5.64,25.2,25.2,0,0,0,3.565,6.649A1.167,1.167,0,0,0,125.331,580.983Z" transform="translate(-65 -547.438)"/>
</svg>
