<svg xmlns="http://www.w3.org/2000/svg" xmlns:xlink="http://www.w3.org/1999/xlink" width="73.312" height="63" viewBox="0 0 73.312 63">
  <defs>
    <style>
      .cls-1 {
        fill-rule: evenodd;
        fill: url(#linear-gradient);
      }
    </style>
    <linearGradient id="linear-gradient" x1="71" y1="912" x2="134" y2="849" gradientUnits="userSpaceOnUse">
      <stop offset="0" stop-color="#8e7139"/>
      <stop offset="0.565" stop-color="#e4cb95"/>
      <stop offset="0.99" stop-color="#fff4de"/>
      <stop offset="1" stop-color="#fff4de"/>
    </linearGradient>
  </defs>
  <path id="_005.svg" data-name="005.svg" class="cls-1" d="M110.862,854.717a1.13,1.13,0,0,0-1.13-1.129H95.268a1.129,1.129,0,1,0,0,2.257h14.465A1.129,1.129,0,0,0,110.862,854.717Zm-38.92,35.738a1.129,1.129,0,0,0,1.13,1.128H87.536a1.129,1.129,0,1,0,0-2.257H73.072A1.129,1.129,0,0,0,71.942,890.455Zm63.336-5.706h-9.452v-2.67a3.091,3.091,0,0,0-3.185-2.98H103.63v-2.848h9.452a3.876,3.876,0,0,0,3.873-3.869v-19.5a3.876,3.876,0,0,0-3.873-3.869H91.918a3.876,3.876,0,0,0-3.873,3.869v19.5a3.876,3.876,0,0,0,3.873,3.869h9.452V879.1H82.359a3.09,3.09,0,0,0-3.184,2.98v2.67H69.722a3.875,3.875,0,0,0-3.873,3.869v19.5a3.875,3.875,0,0,0,3.873,3.869H90.886a3.875,3.875,0,0,0,3.873-3.869v-19.5a3.875,3.875,0,0,0-3.873-3.869H81.434v-2.67a0.855,0.855,0,0,1,.925-0.724h40.282a0.855,0.855,0,0,1,.925.724v2.67h-9.452a3.875,3.875,0,0,0-3.873,3.869v19.5a3.875,3.875,0,0,0,3.873,3.869h21.164a3.876,3.876,0,0,0,3.873-3.869v-19.5A3.876,3.876,0,0,0,135.278,884.749ZM90.3,872.382v-19.5a1.615,1.615,0,0,1,1.614-1.612h21.164a1.614,1.614,0,0,1,1.613,1.612v19.5a1.614,1.614,0,0,1-1.613,1.612H91.918A1.615,1.615,0,0,1,90.3,872.382Zm2.2,16.236v19.5a1.614,1.614,0,0,1-1.613,1.612H69.722a1.614,1.614,0,0,1-1.613-1.612v-19.5a1.614,1.614,0,0,1,1.613-1.612H90.886A1.614,1.614,0,0,1,92.5,888.618Zm44.391,19.5a1.614,1.614,0,0,1-1.613,1.612H114.114a1.615,1.615,0,0,1-1.614-1.612v-19.5a1.615,1.615,0,0,1,1.614-1.612h21.164a1.614,1.614,0,0,1,1.613,1.612v19.5Zm-4.963-18.794H117.463a1.129,1.129,0,1,0,0,2.257h14.465A1.129,1.129,0,1,0,131.928,889.326Z" transform="translate(-65.844 -849)"/>
</svg>
