<svg xmlns="http://www.w3.org/2000/svg" xmlns:xlink="http://www.w3.org/1999/xlink" width="69.78" height="53" viewBox="0 0 69.78 53">
  <defs>
    <style>
      .cls-1 {
        fill-rule: evenodd;
        fill: url(#linear-gradient);
      }
    </style>
    <linearGradient id="linear-gradient" x1="1097.39" y1="2165.41" x2="1150.39" y2="2112.41" gradientUnits="userSpaceOnUse">
      <stop offset="0" stop-color="#8e7139"/>
      <stop offset="0.565" stop-color="#e4cb95"/>
      <stop offset="0.99" stop-color="#fff4de"/>
      <stop offset="1" stop-color="#fff4de"/>
    </linearGradient>
  </defs>
  <path id="_007.svg" data-name="007.svg" class="cls-1" d="M1143.85,2161.72a13.784,13.784,0,0,1-14.04-14.01,13.831,13.831,0,0,1,4.18-9.98,14,14,0,0,1,9.86-4.02,1.093,1.093,0,0,1,1.09,1.09v3.84a1.093,1.093,0,0,1-1.09,1.09,7.564,7.564,0,0,0-7.65,7.63,7.737,7.737,0,0,0,7.65,7.63,7.959,7.959,0,0,0,7.65-7.36,1.092,1.092,0,0,1,1.09-1.01h4.2a1.093,1.093,0,0,1,1.09,1.09A13.767,13.767,0,0,1,1143.85,2161.72Zm-1.1-25.77a11.841,11.841,0,0,0-10.75,11.76,11.847,11.847,0,0,0,23.64,1.1h-2.09a10.155,10.155,0,0,1-9.7,8.37,9.953,9.953,0,0,1-9.84-9.82,9.711,9.711,0,0,1,8.74-9.76v-1.65Zm14.94,8.07h-9.4a1.093,1.093,0,0,1-1.09-1.09v-9.38a1.093,1.093,0,0,1,1.09-1.09h1.26a8.939,8.939,0,0,1,6.37,2.63,10.125,10.125,0,0,1,2.86,6.52v1.32A1.093,1.093,0,0,1,1157.69,2144.02Zm-8.3-2.19h7.2v-0.11c-0.29-4.1-3.25-7.07-7.04-7.07h-0.16v7.18Zm-23.14,14.71h-28.53a8.493,8.493,0,0,1-8.72-8.23v-27.67a8.493,8.493,0,0,1,8.72-8.23h46.75a8.5,8.5,0,0,1,8.72,8.23v6.94a1.077,1.077,0,0,1-.4.84,1.089,1.089,0,0,1-.9.24,9.29,9.29,0,0,0-1.65-.15,8.957,8.957,0,0,0-6.59,2.85,1.086,1.086,0,0,1-.71.34,16.611,16.611,0,0,0-15.22,16.46,16.325,16.325,0,0,0,.98,5.59,1.109,1.109,0,0,1-.28,1.17l-1.42,1.33A1.085,1.085,0,0,1,1126.25,2156.54Zm-28.53-41.95a6.309,6.309,0,0,0-6.53,6.05v27.67a6.309,6.309,0,0,0,6.53,6.05h28.1l0.58-.55a18.718,18.718,0,0,1,15.95-24.25,11.282,11.282,0,0,1,7.89-3.24q0.375,0,.75.03v-5.71a6.3,6.3,0,0,0-6.52-6.05h-46.75Zm45.13,16.02h0Zm-32.95,18.42a1.056,1.056,0,0,1-.52-0.13,1.1,1.1,0,0,1-.53-1.3l3.43-10.54h-4.33a1.083,1.083,0,0,1-1-1.53l6.16-13.91a1.083,1.083,0,0,1,1-.65h6.16a1.1,1.1,0,0,1,.92.5,1.066,1.066,0,0,1,.07,1.05l-3.49,7.5h5.42a1.1,1.1,0,0,1,.86,1.78l-13.29,16.82A1.109,1.109,0,0,1,1109.9,2149.03Zm-0.27-14.15h4.16a1.059,1.059,0,0,1,.88.45,1.071,1.071,0,0,1,.16.98l-2,6.15,8.1-10.25h-4.87a1.1,1.1,0,0,1-.93-0.5,1.091,1.091,0,0,1-.07-1.05l3.49-7.5h-3.72Zm24.28,30.53h-31.18a2.189,2.189,0,0,1-2.19-2.19v-0.15a2.189,2.189,0,0,1,2.19-2.19h31.18a2.2,2.2,0,0,1,2.19,2.19v0.15A2.2,2.2,0,0,1,1133.91,2165.41Zm-0.01-2.34h-31.17v0.15h31.18Z" transform="translate(-1089 -2112.41)"/>
</svg>
