<svg xmlns="http://www.w3.org/2000/svg" xmlns:xlink="http://www.w3.org/1999/xlink" width="80.844" height="64.281" viewBox="0 0 80.844 64.281">
  <defs>
    <style>
      .cls-1 {
        fill-rule: evenodd;
        fill: url(#linear-gradient);
      }
    </style>
    <linearGradient id="linear-gradient" x1="65.031" y1="303.812" x2="129.313" y2="239.531" gradientUnits="userSpaceOnUse">
      <stop offset="0" stop-color="#8e7139"/>
      <stop offset="0.565" stop-color="#e4cb95"/>
      <stop offset="0.99" stop-color="#fff4de"/>
      <stop offset="1" stop-color="#fff4de"/>
    </linearGradient>
  </defs>
  <path id="_001.svg" data-name="001.svg" class="cls-1" d="M137.015,272.305l-27.542-16.532a1.163,1.163,0,0,0-.422-0.152v-4.407a11.713,11.713,0,0,0-11.683-11.68H96.961a11.712,11.712,0,0,0-11.683,11.68v4.393H85.2a1.159,1.159,0,0,0-.6.168L57.309,272.307a1.162,1.162,0,0,0-.559.992v2.446a4.487,4.487,0,0,0,4.483,4.482H81.2a16.013,16.013,0,0,0,31.98,0H133.1a4.487,4.487,0,0,0,4.483-4.482V273.3A1.158,1.158,0,0,0,137.015,272.305ZM87.6,251.214a9.372,9.372,0,0,1,9.363-9.36h0.407a9.372,9.372,0,0,1,9.362,9.36v4.393H87.6v-4.393Zm9.6,41.834a13.708,13.708,0,0,1-13.664-12.821h27.328A13.708,13.708,0,0,1,97.193,293.048Zm38.065-17.3a2.165,2.165,0,0,1-2.163,2.162H61.233a2.165,2.165,0,0,1-2.163-2.162v-1.792l26.453-16.026h23.031l26.7,16.029v1.789Zm-38.1,20.747a1.16,1.16,0,0,0-1.16,1.16v4.986a1.16,1.16,0,0,0,2.32,0v-4.986A1.16,1.16,0,0,0,97.159,296.492ZM78.988,285.025l-4.818,1.291a1.16,1.16,0,1,0,.6,2.241l4.818-1.291A1.16,1.16,0,1,0,78.988,285.025ZM86,293.946a1.161,1.161,0,0,0-1.616.284l-2.861,4.085a1.16,1.16,0,0,0,1.9,1.331l2.861-4.085A1.159,1.159,0,0,0,86,293.946Zm34.215-7.63-4.818-1.291a1.16,1.16,0,0,0-.6,2.241l4.818,1.291A1.16,1.16,0,0,0,120.216,286.316ZM110,294.23a1.16,1.16,0,0,0-1.9,1.331l2.861,4.085a1.16,1.16,0,0,0,1.9-1.331Z" transform="translate(-56.75 -239.531)"/>
</svg>
