<svg xmlns="http://www.w3.org/2000/svg" xmlns:xlink="http://www.w3.org/1999/xlink" width="59" height="58.97" viewBox="0 0 59 58.97">
  <defs>
    <style>
      .cls-1 {
        fill-rule: evenodd;
        fill: url(#linear-gradient);
      }
    </style>
    <linearGradient id="linear-gradient" x1="1661.5" y1="4897.97" x2="1661.5" y2="4839" gradientUnits="userSpaceOnUse">
      <stop offset="0" stop-color="#8e7139"/>
      <stop offset="0.565" stop-color="#e4cb95"/>
      <stop offset="0.99" stop-color="#fff4de"/>
      <stop offset="1" stop-color="#fff4de"/>
    </linearGradient>
  </defs>
  <path id="tb3.svg" class="cls-1" d="M1676,4839h-29.01a15.008,15.008,0,0,0-14.99,14.99V4883a15.006,15.006,0,0,0,14.99,14.98H1676a15.006,15.006,0,0,0,14.99-14.98v-29.01A15.008,15.008,0,0,0,1676,4839Zm13.08,44a13.1,13.1,0,0,1-13.08,13.08h-29.01A13.1,13.1,0,0,1,1633.9,4883v-29.01a13.1,13.1,0,0,1,13.09-13.09H1676a13.1,13.1,0,0,1,13.08,13.09V4883Zm-27.73-34.83h-0.46a15.018,15.018,0,0,0-14.46,14.97,14.866,14.866,0,0,0,4.12,10.23l0.7,0.73c1.79,1.83,2.16,2.22,2.16,4.35v2.35h15.87v-2.35c0-2.02.47-2.52,2.03-4.17l0.08-.09c0.35-.37.75-0.8,1.18-1.28A14.909,14.909,0,0,0,1661.35,4848.17Zm9.79,23.48c-0.4.46-.78,0.86-1.14,1.24l-0.08.09c-1.64,1.74-2.54,2.7-2.54,5.47v0.45h-12.07v-0.45c0-2.91-.84-3.78-2.69-5.68l-0.7-.72a12.932,12.932,0,0,1-3.59-8.92,13.106,13.106,0,0,1,12.6-13.06h0.42A13.011,13.011,0,0,1,1671.14,4871.65Zm-2.8,11.11h-13.89a0.95,0.95,0,0,0,0,1.9h13.89A0.95,0.95,0,1,0,1668.34,4882.76Zm-2.85,4.76h-8.18a0.95,0.95,0,0,0,0,1.9h8.18A0.95,0.95,0,1,0,1665.49,4887.52Zm-4.25-33.68c-3.11.2-5.47,1.24-7.01,3.11a8.982,8.982,0,0,0-1.86,6.33,0.949,0.949,0,0,0,.94.83h0.11a0.961,0.961,0,0,0,.84-1.06,7.133,7.133,0,0,1,1.44-4.9c1.2-1.44,3.1-2.25,5.67-2.41A0.952,0.952,0,0,0,1661.24,4853.84Z" transform="translate(-1632 -4839)"/>
</svg>
