<svg xmlns="http://www.w3.org/2000/svg" viewBox="0 0 167.13 51.14"><defs><style>.cls-1{fill:#f6ab00;}.cls-2{fill:#fefafa;}</style></defs><g id="图层_2" data-name="图层 2"><g id="图层_1-2" data-name="图层 1"><path class="cls-1" d="M45.25,0h4.36V29.09H45.25Z"/><path class="cls-1" d="M126.93,0l-10,29.09h-3.36L105.76,6.42,98,29.09l-.08,0,0,0H94.62L84.63,0H89L96.3,21.21,103.59,0H108l7.29,21.21L122.55,0Z"/><path class="cls-1" d="M42.31,0l-10,29.09H29L21.13,6.42,13.35,29.09l-.08,0,0,0H10L0,0H4.39l7.28,21.21L19,0h4.39l7.28,21.21L37.92,0Z"/><path class="cls-1" d="M130.09,0h4.37V29.09h-4.37Z"/><path class="cls-1" d="M162.75,0h4.37V29.09H162L142.39,5.82V29.09H138V0h5.17l19.55,23.27Z"/><path class="cls-1" d="M76.53,12.36H58a.9.9,0,0,1-.89-.89V5.25A.91.91,0,0,1,58,4.36h21.1L81.79,0H58A5.24,5.24,0,0,0,52.7,5.25v6.22A5.24,5.24,0,0,0,58,16.72H76.53a.9.9,0,0,1,.89.89v6.22a.89.89,0,0,1-.89.89H55.43L52.7,29.09H76.53a5.25,5.25,0,0,0,5.26-5.26V17.61A5.25,5.25,0,0,0,76.53,12.36Z"/><polygon class="cls-2" points="15.61 40.67 17.03 40.67 17.03 37.18 14.91 37.18 14.91 40.05 12.54 40.05 12.54 36.55 10.42 36.55 10.42 40.05 8.12 40.05 8.12 37.18 6 37.18 6 40.67 15.61 40.67"/><polygon class="cls-2" points="0.3 37.66 0.3 38.29 2.15 38.29 2.15 42.8 0.3 42.8 0.3 43.43 2.15 43.43 2.15 48.85 0.3 49.57 0.3 50.74 5.5 48.98 5.5 47.81 4.26 48.2 4.26 43.43 5.5 43.43 5.5 42.8 4.26 42.8 4.26 38.29 5.5 38.29 5.5 37.66 0.3 37.66"/><polygon class="cls-2" points="5.78 42.04 5.78 42.66 10.35 42.66 9.93 44.68 5.79 44.68 5.79 47.99 5.78 47.99 5.78 48.89 5.79 48.88 5.79 51.07 7.91 51.07 7.91 45.3 8.74 45.3 8.74 50.59 10.86 50.59 10.86 45.3 11.89 45.3 11.89 50.59 14.01 50.59 14.01 45.3 14.98 45.3 14.98 50.45 14.33 50.45 14.31 50.45 14.58 51.14 17.1 51.14 17.1 44.68 12.05 44.68 12.47 42.66 17.38 42.66 17.38 42.04 5.78 42.04"/><polygon class="cls-2" points="111.61 42.04 111.61 43.01 113.66 43.01 113.66 42.04 116.82 42.04 116.82 41.41 113.66 41.41 113.66 39.96 116.4 39.96 116.4 39.33 113.66 39.33 113.66 38.01 116.68 38.01 116.68 37.39 113.66 37.39 113.66 36.55 111.61 36.55 111.61 37.39 108.89 37.39 108.89 38.01 111.61 38.01 111.61 39.33 108.89 39.33 108.89 39.96 111.61 39.96 111.61 41.41 108.89 41.41 108.89 42.04 111.61 42.04"/><polygon class="cls-2" points="115.91 47.67 115.91 43.5 101.23 43.5 101.23 44.13 113.86 44.13 113.86 45.3 101.37 45.3 101.37 45.93 113.86 45.93 113.86 47.04 101.23 47.04 101.23 47.67 115.91 47.67"/><polygon class="cls-2" points="108.55 48.27 108.54 48.27 107.98 48.27 107.97 48.27 107.69 48.27 107.13 48.27 108.74 49.66 109.31 49.66 109.58 49.66 109.59 49.66 110.15 49.66 110.16 49.66 110.43 49.66 111 49.66 109.39 48.27 108.82 48.27 108.55 48.27"/><polygon class="cls-2" points="103.76 42.04 103.76 43.01 105.81 43.01 105.81 42.04 108.52 42.04 108.52 41.41 105.81 41.41 105.81 39.96 108.5 39.96 108.52 39.96 108.52 39.33 108.5 39.33 105.81 39.33 105.81 38.01 108.52 38.01 108.52 37.39 105.81 37.39 105.81 36.55 103.76 36.55 103.76 37.39 100.81 37.39 100.81 38.01 103.76 38.01 103.76 39.33 100.95 39.33 100.95 39.96 103.76 39.96 103.76 41.41 101.17 41.41 100.6 41.41 100.6 42.04 101.17 42.04 103.76 42.04"/><polygon class="cls-2" points="114.81 48.15 112.62 48.15 115.07 51.14 117.26 51.14 114.81 48.15"/><path class="cls-2" d="M102.1,48.22l-2,2.78h2.18l2-2.78Z"/><polygon class="cls-2" points="111.47 48.8 111.47 50.52 106.53 50.52 106.53 48.29 104.41 48.29 104.41 51.14 113.59 51.14 113.59 49.79 111.47 48.8"/><polygon class="cls-2" points="66.4 37.76 66.4 37.04 62.16 36.55 62.25 37.3 66.4 37.76"/><polygon class="cls-2" points="58.48 48.29 56.22 48.29 57.9 50.45 60.16 50.45 58.48 48.29"/><polygon class="cls-2" points="65.07 47.11 65.07 46.39 62.95 46.39 62.95 47.11 54.47 47.11 54.47 47.74 62.95 47.74 62.95 50.38 60.56 50.38 60.91 51 65.07 51 65.07 47.74 67.24 47.74 67.24 47.11 65.07 47.11"/><polygon class="cls-2" points="54.84 40.79 53.99 40.79 53.99 36.55 51.87 36.55 51.87 40.79 50.26 40.79 50.26 41.41 51.87 41.41 51.87 51.07 53.99 51.07 53.99 41.41 54.84 41.41 54.84 40.79"/><path class="cls-2" d="M61.77,38.08V36.55H59.66v1.53h-5v.7h5V40.1H55.24V46h2.12V44.89h2.3V46h2.11V44.89h2.51V46H66.4V40.1H61.77V38.78h5.47v-.7Zm-2.11,6.18h-2.3V42.87h2.3Zm0-2h-2.3V40.79h2.3Zm4.62,2H61.77V42.87h2.51Zm0-3.47v1.46H61.77V40.79Z"/><polygon class="cls-2" points="152.68 39.84 152.68 38.29 164.31 38.29 164.31 39.84 166.43 39.84 166.43 37.59 159.74 37.59 159.09 36.55 156.76 36.55 157.41 37.59 150.56 37.59 150.56 39.84 152.68 39.84"/><polygon class="cls-2" points="150.03 42.57 156.92 39.89 157 38.55 150.03 41.32 150.03 42.57"/><polygon class="cls-2" points="160.28 38.76 160.24 40.05 167.13 42.55 167.13 41.3 160.28 38.76"/><path class="cls-2" d="M155.67,46.25l1.65.76-3.39,1.71v1.41l4.8-2.44,4.44,2.07V48.45L160,46.94l3.15-1.89v-.63h-6.58l.55-1.36h-1.9l-1.5,3.75h1.68Zm5-1.22-2,1.2L156.23,45Z"/><path class="cls-2" d="M165.09,42.11h-6.52l.84-1.67h-2.18l-.85,1.67h-5v9h14.33v-9Zm-1.55,1.26v7.08H153.45V42.73h10.09Z"/></g></g></svg>