<svg xmlns="http://www.w3.org/2000/svg" xmlns:xlink="http://www.w3.org/1999/xlink" width="75.093" height="75.094" viewBox="0 0 75.093 75.094">
  <defs>
    <style>
      .cls-1 {
        fill-rule: evenodd;
        fill: url(#linear-gradient);
      }
    </style>
    <linearGradient id="linear-gradient" x1="66.969" y1="765.844" x2="142.062" y2="690.75" gradientUnits="userSpaceOnUse">
      <stop offset="0" stop-color="#8e7139"/>
      <stop offset="0.565" stop-color="#e4cb95"/>
      <stop offset="0.99" stop-color="#fff4de"/>
      <stop offset="1" stop-color="#fff4de"/>
    </linearGradient>
  </defs>
  <path id="_004.svg" data-name="004.svg" class="cls-1" d="M119.264,720.253a22.794,22.794,0,1,1-22.793,22.794A22.794,22.794,0,0,1,119.264,720.253Zm0,2.682a20.112,20.112,0,1,1-20.112,20.112A20.113,20.113,0,0,1,119.264,722.935Zm-1.34,5.363h2.681v13.408h-2.681V728.3Zm4.022,13.408h12.068v2.682H121.946v-2.682Zm-2.682-2.681a4.023,4.023,0,1,1-4.022,4.022A4.023,4.023,0,0,1,119.264,739.025Zm0,2.681a1.341,1.341,0,1,1-1.34,1.341A1.341,1.341,0,0,1,119.264,741.706Zm-37.542-5.363a4.023,4.023,0,1,1-4.022,4.023A4.023,4.023,0,0,1,81.722,736.343Zm0,2.682a1.341,1.341,0,1,1-1.341,1.341A1.341,1.341,0,0,1,81.722,739.025Zm0-18.772a4.023,4.023,0,1,1-4.022,4.023A4.023,4.023,0,0,1,81.722,720.253Zm0,2.682a1.341,1.341,0,1,1-1.341,1.341A1.341,1.341,0,0,1,81.722,722.935Zm16.09-2.682a4.022,4.022,0,1,1-4.023,4.023A4.023,4.023,0,0,1,97.811,720.253Zm0,2.682a1.341,1.341,0,1,1-1.341,1.341A1.341,1.341,0,0,1,97.811,722.935Zm28.158-4.022V705.5a6.7,6.7,0,0,0-6.7-6.7H76.358a6.7,6.7,0,0,0-6.7,6.7v40.224a6.7,6.7,0,0,0,6.7,6.705H96.471v2.682H73.676a6.7,6.7,0,0,1-6.7-6.705V702.823a6.7,6.7,0,0,1,6.7-6.7h48.27a6.7,6.7,0,0,1,6.7,6.7v16.09h-2.681Zm-56.315-9.387h56.315v2.682H69.654v-2.682Zm12.067-18.771a4.023,4.023,0,0,1,4.022,4.023v5.363a4.022,4.022,0,0,1-8.045,0v-5.363A4.023,4.023,0,0,1,81.722,690.755Zm0,2.682a1.341,1.341,0,0,1,1.341,1.341v5.363a1.341,1.341,0,1,1-2.682,0v-5.363A1.341,1.341,0,0,1,81.722,693.437Zm32.179-2.682a4.023,4.023,0,0,1,4.023,4.023v5.363a4.023,4.023,0,0,1-8.045,0v-5.363A4.023,4.023,0,0,1,113.9,690.755Zm0,2.682a1.341,1.341,0,0,1,1.341,1.341v5.363a1.341,1.341,0,0,1-2.682,0v-5.363A1.341,1.341,0,0,1,113.9,693.437Zm-16.09-2.682a4.023,4.023,0,0,1,4.023,4.023v5.363a4.023,4.023,0,0,1-8.045,0v-5.363A4.023,4.023,0,0,1,97.811,690.755Zm0,2.682a1.341,1.341,0,0,1,1.341,1.341v5.363a1.341,1.341,0,1,1-2.682,0v-5.363A1.341,1.341,0,0,1,97.811,693.437Z" transform="translate(-66.969 -690.75)"/>
</svg>
