<svg id="sp.svg" xmlns="http://www.w3.org/2000/svg" width="1072.658" height="474.719" viewBox="0 0 1072.658 474.719">
  <defs>
    <style>
      .cls-1 {
        fill: #877045;
      }

      .cls-1, .cls-2, .cls-4, .cls-6, .cls-7, .cls-9 {
        fill-rule: evenodd;
      }

      .cls-2, .cls-3, .cls-5, .cls-8 {
        fill: #fff;
      }

      .cls-3 {
        font-size: 23.229px;
      }

      .cls-3, .cls-5, .cls-8 {
        font-family: OPPOSans;
      }

      .cls-4 {
        fill: #2b2826;
        stroke: #886e5c;
      }

      .cls-4, .cls-6 {
        stroke-width: 1px;
      }

      .cls-5, .cls-8 {
        font-size: 25.535px;
      }

      .cls-5 {
        text-anchor: middle;
      }

      .cls-6 {
        fill: none;
        stroke: #81756e;
      }

      .cls-7 {
        fill: #7e7462;
        opacity: 0.2;
      }

      .cls-9 {
        fill: #d7c374;
      }
    </style>
  </defs>
  <g id="解锁密码">
    <path id="矩形_890_拷贝_3" data-name="矩形 890 拷贝 3" class="cls-1" d="M1172.76,517.518h80.07V606.63h-80.07V517.518Zm102.8,0h80.07V606.63h-80.07V517.518Zm102.8,0h80.07V606.63h-80.07V517.518Zm102.8,0h80.08V606.63h-80.08V517.518Zm-308.4,109.775h80.07v89.112h-80.07V627.293Zm102.8,0h80.07v89.112h-80.07V627.293Zm102.8,0h80.07v89.112h-80.07V627.293Zm102.8,0h80.08v89.112h-80.08V627.293Zm-308.4,109.775h183.39V826.18H1172.76V737.068Zm206.64,0h286.7V826.18H1379.4V737.068Zm206.37-219.55h80.07V606.63h-80.07V517.518Zm0,109.775h80.07v89.112h-80.07V627.293Z" transform="translate(-593.562 -363.281)"/>
    <path id="_1234_5678_90_" data-name="1234 5678 90　" class="cls-2" d="M1219.39,544.319h-2.28l-8.55,5.022-0.05,3.394,7.63-4.417V580.91h3.25V544.319Zm90.75,33.661,12.74-13.3a21.705,21.705,0,0,0,3.49-4.858,11.64,11.64,0,0,0-.21-10.74,10.06,10.06,0,0,0-3.93-3.882,11.566,11.566,0,0,0-5.72-1.395,12.21,12.21,0,0,0-6.81,1.837,9.19,9.19,0,0,0-3.83,5.137l2.55,1.534a7.722,7.722,0,0,1,2.86-4.114,8.5,8.5,0,0,1,5.14-1.511,7.611,7.611,0,0,1,5.74,2.185,8.069,8.069,0,0,1,2.12,5.858q0,4.185-3.72,8.043l-15.2,15.808v2.325h22.31v-2.93h-17.53Zm119.53-13.831a10.077,10.077,0,0,0-4.02-4,11.935,11.935,0,0,0-5.84-1.418,5.666,5.666,0,0,0-1.44.186l10.88-12.32v-2.279h-18.36v2.93h14.08L1412.1,561.94l1.9,1.953a6.8,6.8,0,0,1,5.54-2.185,7.629,7.629,0,0,1,8.36,8.415,8.9,8.9,0,0,1-1.04,4.37,7.579,7.579,0,0,1-2.91,2.976,9.035,9.035,0,0,1-9.3-.465,7.523,7.523,0,0,1-2.83-4l-2.56,1.487a8.838,8.838,0,0,0,3.81,5.115,12.079,12.079,0,0,0,6.65,1.813,11.622,11.622,0,0,0,5.84-1.465,10.7,10.7,0,0,0,4.06-4.044,11.3,11.3,0,0,0,1.49-5.789A12.055,12.055,0,0,0,1429.67,564.149Zm104.58,4.858h-4.88V544.319h-2.47l-16.78,25.339v2.232h16.09v9.02h3.16v-9.02h4.88v-2.883Zm-20.32,0,12.28-18.6v18.6h-12.28Zm122.84-7.348a10.511,10.511,0,0,0-4.04-4.045,11.444,11.444,0,0,0-5.74-1.465,9.347,9.347,0,0,0-3.07.512,10.218,10.218,0,0,0-2.7,1.4l1.49-13.39h13.76v-2.929h-16.69l-2.14,19.806,2.65,0.651a6.111,6.111,0,0,1,2.51-2.325,8.349,8.349,0,0,1,3.86-.837,8.669,8.669,0,0,1,4.26,1.069,7.8,7.8,0,0,1,3.02,2.976,8.614,8.614,0,0,1,1.09,4.37,8.871,8.871,0,0,1-1.09,4.417,7.705,7.705,0,0,1-3.02,3.022,9.517,9.517,0,0,1-9.42-.372,7.208,7.208,0,0,1-2.79-3.952L1616.2,572a8.524,8.524,0,0,0,3.74,5,12.182,12.182,0,0,0,6.72,1.836,12.033,12.033,0,0,0,5.91-1.464,10.772,10.772,0,0,0,4.16-4.069A12.124,12.124,0,0,0,1636.77,561.659ZM1225.6,674.179a10.058,10.058,0,0,0-3.86-3.975,11.081,11.081,0,0,0-5.63-1.418,9.639,9.639,0,0,0-6.51,2.464,44.556,44.556,0,0,1,3.58-5.718l8-11.437h-3.72l-6.83,10a45.443,45.443,0,0,0-4.7,8.322,18.871,18.871,0,0,0-1.39,7.067,12.874,12.874,0,0,0,1.41,6.137,10.175,10.175,0,0,0,3.98,4.114,12.342,12.342,0,0,0,11.62.024,10.3,10.3,0,0,0,4-4,11.54,11.54,0,0,0,1.44-5.765A11.938,11.938,0,0,0,1225.6,674.179Zm-4.02,11.833a8.466,8.466,0,0,1-11.58.023,9.371,9.371,0,0,1-.02-12.065,7.622,7.622,0,0,1,5.81-2.3,7.736,7.736,0,0,1,5.81,2.255A9.435,9.435,0,0,1,1221.58,686.012Zm86.81-31.917v2.929h18.74l-13.3,33.66h3.53l13.12-34.451V654.1h-22.09Zm122.59,20.433a9.933,9.933,0,0,0-4.9-3.65,8.49,8.49,0,0,0,3.67-3.184,8.588,8.588,0,0,0,1.35-4.719,9.34,9.34,0,0,0-1.24-4.789,8.829,8.829,0,0,0-3.44-3.371,10.56,10.56,0,0,0-9.9,0,8.9,8.9,0,0,0-3.44,3.371,9.432,9.432,0,0,0-1.23,4.789,8.7,8.7,0,0,0,1.32,4.742,8.372,8.372,0,0,0,3.65,3.161,9.933,9.933,0,0,0-4.9,3.65,9.816,9.816,0,0,0-1.79,5.835,10.848,10.848,0,0,0,1.44,5.579,10.141,10.141,0,0,0,4.02,3.859,13.005,13.005,0,0,0,11.72,0,10.141,10.141,0,0,0,4.02-3.859,10.848,10.848,0,0,0,1.44-5.579A9.885,9.885,0,0,0,1430.98,674.528Zm-14.23-6.788a6.552,6.552,0,0,1-1.79-4.765,6.634,6.634,0,0,1,1.79-4.789,6.893,6.893,0,0,1,9.42,0,6.565,6.565,0,0,1,1.81,4.789,6.485,6.485,0,0,1-1.81,4.765A6.957,6.957,0,0,1,1416.75,667.74Zm10.58,18.458a8.068,8.068,0,0,1-5.86,2.208,8.165,8.165,0,0,1-5.88-2.208,7.729,7.729,0,0,1-2.3-5.835,7.868,7.868,0,0,1,2.25-5.881,9.037,9.037,0,0,1,11.84,0,7.932,7.932,0,0,1,2.23,5.881A7.752,7.752,0,0,1,1427.33,686.2Zm107.66-28.327a10.164,10.164,0,0,0-3.95-4.115,11.366,11.366,0,0,0-5.79-1.464,11.634,11.634,0,0,0-5.81,1.441,10.551,10.551,0,0,0-4.02,4,11.359,11.359,0,0,0-1.47,5.765,11.937,11.937,0,0,0,1.4,5.812,9.962,9.962,0,0,0,3.88,3.975,11.2,11.2,0,0,0,5.65,1.418,9.42,9.42,0,0,0,6.51-2.464,51.855,51.855,0,0,1-3.53,5.719l-8.09,11.437h3.81l6.79-10a46.6,46.6,0,0,0,4.65-8.322,18.875,18.875,0,0,0,1.39-7.067A12.759,12.759,0,0,0,1534.99,657.871Zm-4.18,11.855a7.669,7.669,0,0,1-5.56,2.093,7.786,7.786,0,0,1-5.86-2.255,8.374,8.374,0,0,1-2.18-6.068,8.262,8.262,0,0,1,2.21-6,8.554,8.554,0,0,1,11.6-.023,8.308,8.308,0,0,1,2.18,6.02v0.7A8.132,8.132,0,0,1,1530.81,669.726ZM1636.72,685q3.12-4.9,3.11-13.878,0-9.019-3.11-13.924a10.664,10.664,0,0,0-17.95,0q-3.105,4.9-3.11,13.924,0,8.975,3.11,13.878A10.664,10.664,0,0,0,1636.72,685Zm-15.58-2q-2.22-4.068-2.23-11.879,0-7.856,2.23-11.9a7.415,7.415,0,0,1,13.21,0q2.235,4.045,2.23,11.9,0,7.812-2.23,11.879A7.4,7.4,0,0,1,1621.14,683Z" transform="translate(-593.562 -363.281)"/>
    <path id="矩形_898_拷贝" data-name="矩形 898 拷贝" class="cls-2" d="M1303.74,783.868h-58.33l10.68,10.683-2.79,2.8-15.29-15.289,0.18-.186-0.18-.186L1253.3,766.4l2.79,2.8-10.71,10.719h58.36v3.954Z" transform="translate(-593.562 -363.281)"/>
    <text id="确定" class="cls-3" transform="translate(892.578 431.847) scale(1.291)">确定</text>
    <path id="矩形_948_拷贝_2" data-name="矩形 948 拷贝 2" class="cls-4" d="M621.142,548.8h89.479v89.479H621.142V548.8Zm122.547,0h89.479v89.479H743.689V548.8Zm121.574,0h89.479v89.479H865.263V548.8Zm122.548,0h89.479v89.479H987.811V548.8Z" transform="translate(-593.562 -363.281)"/>
    <text id="解锁密码-2" data-name="解锁密码" class="cls-5" transform="translate(256.399 165.075) scale(1.175)">解锁密码</text>
    <path id="矩形_953_拷贝" data-name="矩形 953 拷贝" class="cls-6" d="M919.582,518.37H1101.1V658.177H599.437V518.37H780.95" transform="translate(-593.562 -363.281)"/>
  </g>
  <g id="开关">
    <path id="矩形_880_拷贝_7" data-name="矩形 880 拷贝 7" class="cls-7" d="M593.551,363.291H1666.21v95.162H593.551V363.291Z" transform="translate(-593.562 -363.281)"/>
    <text id="自动锁屏" class="cls-8" transform="translate(104.394 59.851) scale(1.175)">自动锁屏</text>
    <path id="locked" class="cls-9" d="M662.4,435.342H631.01a5.231,5.231,0,0,1-5.231-5.231v-19.18a5.231,5.231,0,0,1,5.231-5.231h1.743v-7.093c0-6.741,6.246-12.206,13.95-12.206s13.949,5.465,13.949,12.206V405.7H662.4a5.231,5.231,0,0,1,5.231,5.231v19.18A5.231,5.231,0,0,1,662.4,435.342Zm-19.18-11.429v2.711a3.487,3.487,0,0,0,6.974,0v-2.711A6.975,6.975,0,1,0,643.216,423.913Zm14.192-25.488c0-4.434-4.793-8.029-10.706-8.029S636,393.991,636,398.425V405.7h21.412v-7.275Z" transform="translate(-593.562 -363.281)"/>
  </g>
  <g id="时间">
    <text id="无操作后" class="cls-5" transform="translate(256.399 341.303) scale(1.175)">无操作后</text>
    <text id="执行" class="cls-5" transform="translate(257.399 470.303) scale(1.175)">执行</text>
    <path id="矩形_953" data-name="矩形 953" class="cls-6" d="M919.582,694.6H1101.1V822.655H889.582m-79.632,0H599.437V694.6H780.95" transform="translate(-593.562 -363.281)"/>
  </g>
</svg>
