<svg xmlns="http://www.w3.org/2000/svg" xmlns:xlink="http://www.w3.org/1999/xlink" width="69.781" height="55.125" viewBox="0 0 69.781 55.125">
  <defs>
    <style>
      .cls-1 {
        fill-rule: evenodd;
        fill: url(#linear-gradient);
      }
    </style>
    <linearGradient id="linear-gradient" x1="74.328" y1="1000" x2="129.453" y2="944.875" gradientUnits="userSpaceOnUse">
      <stop offset="0" stop-color="#8e7139"/>
      <stop offset="0.565" stop-color="#e4cb95"/>
      <stop offset="0.99" stop-color="#fff4de"/>
      <stop offset="1" stop-color="#fff4de"/>
    </linearGradient>
  </defs>
  <path id="_006.svg" data-name="006.svg" class="cls-1" d="M93.188,981.982h-2.2v-6.39H85.419v6.39H82v-6.39H76.434v6.39h-2.2a1.426,1.426,0,0,0,0,2.851H93.188A1.426,1.426,0,0,0,93.188,981.982Zm17.4-13.88h2.2v6.39h5.567V968.1h3.418v6.39h5.568V968.1h2.2a1.426,1.426,0,0,0,0-2.851H110.583A1.426,1.426,0,0,0,110.583,968.1ZM96.892,944.884H70.527A3.537,3.537,0,0,0,67,948.422v47.2a3.537,3.537,0,0,0,3.528,3.539H96.892a3.537,3.537,0,0,0,3.528-3.539v-47.2A3.537,3.537,0,0,0,96.892,944.884Zm1.334,50.737a1.338,1.338,0,0,1-1.334,1.339H70.527a1.338,1.338,0,0,1-1.334-1.339v-5.784H98.226v5.784Zm0-7.984H69.193V962.085H98.226v25.552Zm0-27.752H69.193V948.422a1.337,1.337,0,0,1,1.334-1.338H96.892a1.337,1.337,0,0,1,1.334,1.338v11.463ZM76.859,992.2c2.1,0,3.814,8.285,3.814,6.175a3.814,3.814,0,1,0-7.629,0C73.045,1000.48,74.756,992.2,76.859,992.2Zm0,4.55a1.625,1.625,0,1,1-1.62,1.625A1.625,1.625,0,0,1,76.859,996.745Zm13.7-4.55c2.1,0,3.814,8.285,3.814,6.175a3.814,3.814,0,1,0-7.629,0C86.746,1000.48,88.457,992.2,90.56,992.2Zm0,4.55a1.625,1.625,0,1,1-1.62,1.625A1.625,1.625,0,0,1,90.56,996.745Zm-13.7-47.126a3.825,3.825,0,1,0,3.814,3.825A3.824,3.824,0,0,0,76.859,949.619Zm0,5.45a1.625,1.625,0,1,1,1.62-1.625A1.625,1.625,0,0,1,76.859,955.069Zm13.7-5.45a3.825,3.825,0,1,0,3.814,3.825A3.824,3.824,0,0,0,90.56,949.619Zm0,5.45a1.625,1.625,0,1,1,1.62-1.625A1.624,1.624,0,0,1,90.56,955.069Zm42.684-10.185H106.879a3.537,3.537,0,0,0-3.528,3.538v47.2a3.537,3.537,0,0,0,3.528,3.539h26.365a3.537,3.537,0,0,0,3.528-3.539v-47.2A3.537,3.537,0,0,0,133.244,944.884Zm1.334,50.737a1.338,1.338,0,0,1-1.334,1.339H106.879a1.338,1.338,0,0,1-1.334-1.339v-5.784h29.033v5.784Zm0-7.984H105.545V962.085h29.033v25.552Zm0-27.752H105.545V948.422a1.337,1.337,0,0,1,1.334-1.338h26.365a1.337,1.337,0,0,1,1.334,1.338v11.463ZM113.211,992.2c2.1,0,3.814,8.285,3.814,6.175a3.815,3.815,0,1,0-7.629,0C109.4,1000.48,111.107,992.2,113.211,992.2Zm0,4.55a1.625,1.625,0,1,1-1.621,1.625A1.625,1.625,0,0,1,113.211,996.745Zm13.7-4.55c2.1,0,3.814,8.285,3.814,6.175a3.815,3.815,0,1,0-7.629,0C123.1,1000.48,124.808,992.2,126.912,992.2Zm0,4.55a1.625,1.625,0,1,1-1.621,1.625A1.625,1.625,0,0,1,126.912,996.745Zm-13.7-47.126a3.825,3.825,0,1,0,3.814,3.825A3.824,3.824,0,0,0,113.211,949.619Zm0,5.45a1.625,1.625,0,1,1,1.62-1.625A1.625,1.625,0,0,1,113.211,955.069Zm13.7-5.45a3.825,3.825,0,1,0,3.814,3.825A3.824,3.824,0,0,0,126.912,949.619Zm0,5.45a1.625,1.625,0,1,1,1.62-1.625A1.625,1.625,0,0,1,126.912,955.069Z" transform="translate(-67 -944.875)"/>
</svg>
