<?xml version="1.0" standalone="no"?><!DOCTYPE svg PUBLIC "-//W3C//DTD SVG 1.1//EN" "http://www.w3.org/Graphics/SVG/1.1/DTD/svg11.dtd"><svg t="1696830838572" class="icon" viewBox="0 0 1024 1024" version="1.1" xmlns="http://www.w3.org/2000/svg" p-id="1732" xmlns:xlink="http://www.w3.org/1999/xlink" width="200" height="200"><path d="M249.856 488.96C138.752 486.4 50.688 393.728 52.736 281.6S146.944 80.896 258.048 82.944c109.568 2.56 197.12 92.16 197.12 202.752-1.024 113.152-92.672 204.288-205.312 203.264z m0-347.648c-79.36 2.048-142.336 68.608-140.288 148.48 2.048 79.872 68.096 143.36 147.456 140.8 77.824-2.048 139.776-66.048 139.776-144.896-1.024-80.896-66.56-145.92-146.944-144.896z m317.952 115.712h433.664v57.856H567.808v-57.856zM802.304 952.32c-111.104-2.56-199.168-95.232-197.12-206.848 2.048-112.128 94.208-200.704 205.312-198.656 109.568 2.56 197.12 92.16 197.12 202.752-1.024 113.152-92.672 203.776-204.8 202.752h-0.512z m0-347.648c-79.36 2.048-141.824 68.608-139.776 148.48 2.048 79.872 68.096 143.36 147.456 140.8 77.824-2.048 139.776-66.048 139.776-144.896-1.024-80.896-66.56-145.92-146.944-144.896 0 0.512 0 0.512-0.512 0.512zM476.16 778.752H41.984v-57.856H476.16v57.856z" fill="#ffffff" p-id="1733"></path></svg>