<svg xmlns="http://www.w3.org/2000/svg" viewBox="0 0 267.7 305.82"><defs><style>.cls-1{fill:#fff;}</style></defs><g id="图层_2" data-name="图层 2"><g id="央铋_1" data-name="央铋 1"><path id="kt02" class="cls-1" d="M264.7,220.09l-15.66-9,16.62-28.78a6,6,0,0,0-10.4-6l-16.61,28.78-35.49-20.49,16.61-28.78a6,6,0,0,0-.9-7.18,6.59,6.59,0,0,0-.34-.71l-16.62-28.78,35.5-20.49L254,127.39a6,6,0,1,0,10.39-6L247.8,92.62l15.66-9.05a6,6,0,1,0-6-10.39l-15.66,9L225.18,53.45a6,6,0,1,0-10.39,6l16.62,28.77-35.5,20.5L180,81.2a6,6,0,0,0-2.76-3.36l0,0-.05,0a6,6,0,0,0-4.29-.71H141.1v-41h33.23a6,6,0,0,0,0-12H141.1V6a6,6,0,0,0-12,0V24.08H95.87a6,6,0,0,0,0,12H129.1v41H95.87a5.29,5.29,0,0,0-.8.06,6,6,0,0,0-6.66,2.81L71.79,108.72,36.3,88.22,52.91,59.45a6,6,0,1,0-10.39-6L25.91,82.22l-15.66-9a6,6,0,1,0-6,10.39l15.66,9.05L3.29,121.39a6,6,0,0,0,2.2,8.2,5.9,5.9,0,0,0,3,.81,6,6,0,0,0,5.2-3L30.3,98.62l35.49,20.49L49.18,147.89a5.19,5.19,0,0,0-.35.71,6,6,0,0,0-.9,7.18l16.62,28.78-35.5,20.49L12.44,176.27a6,6,0,0,0-10.39,6l16.61,28.78L3,220.09a6,6,0,0,0,6,10.4l15.66-9.05,16.62,28.78a6,6,0,1,0,10.39-6L35.05,215.44,70.55,195l16.61,28.78a6,6,0,0,0,4.12,2.89,6,6,0,0,0,4.59,2.13H129.1v41H95.87a6,6,0,0,0,0,12H129.1v18.08a6,6,0,0,0,12,0V281.74h33.23a6,6,0,1,0,0-12H141.1v-41h33.23a6,6,0,0,0,5.76-4.35,6.52,6.52,0,0,0,.45-.67L197.16,195l35.49,20.49L216,244.22a6,6,0,0,0,10.4,6L243,221.44l15.66,9.05a6,6,0,1,0,6-10.4Zm-57.13-67.18-14.81,25.65-46.91-27.09,45.67-26.36ZM170.71,89.07l14.81,25.65L141.1,140.36V89.07ZM97,89.07H129.1V141.8L82.18,114.72ZM60.13,152.91l16.05-27.8,45.67,26.36L74.94,178.56ZM97,216.75l-16-27.8,48.16-27.8v55.6Zm73.72,0H141.1V162.59L186.76,189Z"/></g></g></svg>