<?xml version="1.0" standalone="no"?><!DOCTYPE svg PUBLIC "-//W3C//DTD SVG 1.1//EN" "http://www.w3.org/Graphics/SVG/1.1/DTD/svg11.dtd"><svg t="1696830926632" class="icon" viewBox="0 0 1025 1024" version="1.1" xmlns="http://www.w3.org/2000/svg" p-id="4063" xmlns:xlink="http://www.w3.org/1999/xlink" width="200.1953125" height="200"><path d="M540.139 915.69c-77.196 0.004-151.19-32.261-203.788-89.049-9.605-10.37-8.985-26.564 1.385-36.17 10.369-9.604 26.563-8.986 36.17 1.385 43.94 47.438 106.213 73.894 170.78 72.598C669.542 861.94 769.075 758.316 766.56 633.46c-0.525-26.033-12.93-79.279-69.057-185.102-6.623-12.488-1.87-27.98 10.619-34.604 12.488-6.624 27.98-1.87 34.604 10.619 49.537 93.401 74.074 161.456 75.013 208.056 1.492 74.153-25.98 144.45-77.358 197.94-51.378 53.49-120.51 83.77-194.665 85.264-1.856 0.038-3.724 0.056-5.577 0.056zM288.092 668.692c-13.897 0-25.298-11.122-25.58-25.08-0.72-35.811 11.894-84.424 38.563-148.617 20.31-48.884 48.745-106.444 84.516-171.083 60.605-109.516 122.414-203.191 123.032-204.125a25.596 25.596 0 0 1 42.112-0.849c0.507 0.703 51.274 71.27 107.49 160.722 7.522 11.968 3.917 27.768-8.052 35.289-11.968 7.521-27.768 3.916-35.289-8.052-33.093-52.66-64.205-98.584-83.986-127.156-22.951 36.191-62.067 99.455-100.673 169.236-76.187 137.71-117.573 241.982-116.534 293.603 0.285 14.132-10.942 25.82-25.074 26.105-0.174 0.005-0.35 0.007-0.525 0.007zM217.564 865.046a25.51 25.51 0 0 1-17.727-7.136c-10.195-9.793-10.52-25.995-0.729-36.189l589.304-613.53c9.793-10.196 25.995-10.521 36.19-0.729 10.195 9.792 10.52 25.994 0.73 36.19l-589.305 613.53c-5.026 5.23-11.739 7.864-18.463 7.864z" fill="#ffffff" p-id="4064"></path><path d="M582.917 786.802c-8.324 0-15.163-6.655-15.347-15.018-0.187-8.48 6.535-15.505 15.015-15.693 0.36-0.011 43.325-1.764 71.708-37.409 30.067-37.758 18.844-69.468 18.722-69.778-3.106-7.891 0.774-16.808 8.666-19.914 7.892-3.104 16.808 0.774 19.914 8.667 0.763 1.938 18.205 48.067-23.275 100.158-37.57 47.18-92.727 48.932-95.057 48.983a13 13 0 0 1-0.346 0.004z" fill="#ffffff" p-id="4065"></path></svg>