<svg xmlns="http://www.w3.org/2000/svg" viewBox="0 0 304.21 304.21"><defs><style>.cls-1{fill:#fff;}</style></defs><g id="图层_2" data-name="图层 2"><g id="央铋_1" data-name="央铋 1"><g id="kt03"><path class="cls-1" d="M152.11,238.2A86.12,86.12,0,1,1,213,91.2h0a86.1,86.1,0,0,1-60.9,147Zm0-160.23a74.14,74.14,0,1,0,52.42,21.72A73.64,73.64,0,0,0,152.11,78Z"/><path class="cls-1" d="M152.11,54.43a6,6,0,0,1-6-6V6a6,6,0,0,1,12,0V48.43A6,6,0,0,1,152.11,54.43Z"/><path class="cls-1" d="M152.11,304.21a6,6,0,0,1-6-6V255.78a6,6,0,1,1,12,0v42.43A6,6,0,0,1,152.11,304.21Z"/><path class="cls-1" d="M48.43,158.11H6a6,6,0,0,1,0-12H48.43a6,6,0,1,1,0,12Z"/><path class="cls-1" d="M298.21,158.11H255.79a6,6,0,1,1,0-12h42.42a6,6,0,0,1,0,12Z"/><path class="cls-1" d="M225.42,84.79a6,6,0,0,1-4.24-10.24l30-30A6,6,0,0,1,259.66,53l-30,30A6,6,0,0,1,225.42,84.79Z"/><path class="cls-1" d="M48.79,261.42a6,6,0,0,1-4.24-10.24l30-30A6,6,0,0,1,83,229.66l-30,30A6,6,0,0,1,48.79,261.42Z"/><path class="cls-1" d="M78.79,84.79A6,6,0,0,1,74.55,83l-30-30A6,6,0,0,1,53,44.55l30,30a6,6,0,0,1-4.25,10.24Z"/><path class="cls-1" d="M255.42,261.42a6,6,0,0,1-4.24-1.76l-30-30a6,6,0,0,1,8.48-8.48l30,30a6,6,0,0,1-4.24,10.24Z"/><path class="cls-1" d="M152.11,54.43a6,6,0,0,1-6-6V6a6,6,0,0,1,12,0V48.43A6,6,0,0,1,152.11,54.43Z"/><path class="cls-1" d="M152.11,304.21a6,6,0,0,1-6-6V255.78a6,6,0,1,1,12,0v42.43A6,6,0,0,1,152.11,304.21Z"/><path class="cls-1" d="M48.43,158.11H6a6,6,0,0,1,0-12H48.43a6,6,0,1,1,0,12Z"/><path class="cls-1" d="M298.21,158.11H255.79a6,6,0,1,1,0-12h42.42a6,6,0,0,1,0,12Z"/><path class="cls-1" d="M225.42,84.79a6,6,0,0,1-4.24-10.24l30-30A6,6,0,0,1,259.66,53l-30,30A6,6,0,0,1,225.42,84.79Z"/><path class="cls-1" d="M48.79,261.42a6,6,0,0,1-4.24-10.24l30-30A6,6,0,0,1,83,229.66l-30,30A6,6,0,0,1,48.79,261.42Z"/><path class="cls-1" d="M78.79,84.79A6,6,0,0,1,74.55,83l-30-30A6,6,0,0,1,53,44.55l30,30a6,6,0,0,1-4.25,10.24Z"/><path class="cls-1" d="M255.42,261.42a6,6,0,0,1-4.24-1.76l-30-30a6,6,0,0,1,8.48-8.48l30,30a6,6,0,0,1-4.24,10.24Z"/></g></g></g></svg>