<svg xmlns="http://www.w3.org/2000/svg" viewBox="0 0 258.66 246.4"><defs><style>.cls-1{fill:#fff;}</style></defs><g id="图层_2" data-name="图层 2"><g id="央铋_1" data-name="央铋 1"><g id="kt04"><path class="cls-1" d="M186.83,218.41A111.15,111.15,0,0,1,29.71,74.3l1.21,11.42a6,6,0,0,0,6,5.36c.21,0,.43,0,.64,0a6,6,0,0,0,5.33-6.6L39.29,50.84a6,6,0,0,0-9.5-4.22L2.47,66.52a6,6,0,0,0,7.06,9.7l9.15-6.66A123.09,123.09,0,0,0,193,228.69a6,6,0,1,0-6.2-10.28Z"/><path class="cls-1" d="M257.51,172.59a6,6,0,0,0-8.38-1.31l-9.42,6.86A123.14,123.14,0,0,0,66,17.71,6,6,0,1,0,72.2,28,111.14,111.14,0,0,1,228.92,172.88l-1.18-11.1A6,6,0,1,0,215.81,163l3.56,33.61a6,6,0,0,0,3.54,4.85,5.9,5.9,0,0,0,2.43.52,6,6,0,0,0,3.53-1.15L256.2,181A6,6,0,0,0,257.51,172.59Z"/></g></g></g></svg>