<svg xmlns="http://www.w3.org/2000/svg" width="59" height="59" viewBox="0 0 59 59">
  <defs>
    <style>
      .cls-1 {
        fill: #c8c7c3;
        fill-rule: evenodd;
      }
    </style>
  </defs>
  <path id="tb0.svg" class="cls-1" d="M1825.48,1468.5a1.08,1.08,0,0,1-.74-1.86,23.207,23.207,0,0,1,32.12-.11,1.075,1.075,0,1,1-1.48,1.56,21.043,21.043,0,0,0-29.15.11A1.084,1.084,0,0,1,1825.48,1468.5Zm36.48-7.6c-5.35-6.41-14.64-9.1-21.61-9.1-6.92,0-16.24,2.79-21.28,8.83a1.8,1.8,0,0,0-.38.8,1.114,1.114,0,0,0-.02.17,1.176,1.176,0,0,0,1.18,1.18,1.194,1.194,0,0,0,.94-0.46,8.4,8.4,0,0,1,.65-0.8c4.42-4.64,11.65-7.66,18.91-7.57a27.513,27.513,0,0,1,19.87,8.52,1.357,1.357,0,0,0,1.79-.05A1.034,1.034,0,0,0,1861.96,1460.9Zm-30.08,14.32a1.08,1.08,0,0,1-.73-1.87,13.574,13.574,0,0,1,9.11-3.81h0.18a13.731,13.731,0,0,1,9.3,3.79,1.073,1.073,0,1,1-1.44,1.59,11.622,11.622,0,0,0-7.86-3.23h-0.15a11.527,11.527,0,0,0-7.68,3.24A1.091,1.091,0,0,1,1831.88,1475.22Zm18.75,10.03a1.066,1.066,0,0,1-.93-0.54l-22.8-39.35a1.075,1.075,0,1,1,1.86-1.08l22.8,39.36a1.078,1.078,0,0,1-.39,1.47A1.174,1.174,0,0,1,1850.63,1485.25Zm-8.31-6.34a1.905,1.905,0,1,1-1.9-1.9A1.9,1.9,0,0,1,1842.32,1478.91Zm12.69-43.91h-29.02a15.008,15.008,0,0,0-14.99,14.99v29.02a15.008,15.008,0,0,0,14.99,14.99h29.02a15,15,0,0,0,14.99-14.99v-29.02a15,15,0,0,0-14.99-14.99m13.09,44.01a13.108,13.108,0,0,1-13.09,13.09h-29.02a13.094,13.094,0,0,1-13.08-13.09v-29.02a13.094,13.094,0,0,1,13.08-13.09h29.02a13.108,13.108,0,0,1,13.09,13.09v29.02Z" transform="translate(-1811 -1435)"/>
</svg>
